<?xml version="1.0" encoding="UTF-8"?><svg id="Layer_1" xmlns="http://www.w3.org/2000/svg" viewBox="0 0 21.921 23.597"><path d="M6.739,12.139v-.272c.087-.098,.17-.198,.261-.293,.913-.957,1.823-1.915,2.741-2.867,.347-.36,.713-.705,1.07-1.057h.348c.3,.296,.611,.585,.899,.89,1.045,1.106,2.083,2.217,3.124,3.326v.272c-.276,.457-.625,.49-1.01,.097-.039-.039-.076-.079-.114-.12-.792-.84-1.584-1.68-2.375-2.521-.045-.049-.081-.105-.121-.158-.019,.012-.038,.025-.057,.037v.244c0,1.848-.006,3.696,.006,5.544,.002,.296-.071,.527-.352,.685h-.348c-.268-.155-.355-.37-.353-.663,.013-1.864,.007-3.729,.007-5.593v-.288c-.097,.098-.151,.151-.203,.206-.843,.881-1.683,1.765-2.53,2.643-.369,.382-.721,.337-.993-.112Z" fill="#fff"/></svg>