<?xml version="1.0" encoding="UTF-8"?><svg id="Layer_1" xmlns="http://www.w3.org/2000/svg" viewBox="0 0 529.197 529.197"><path d="M318.488,5.553C178.292-23.318,41.558,63.075,7.385,202.137c-3.614,14.708-5.857,29.636-6.837,44.753-.068,1.052-.324,2.092-.492,3.138v29.159c.51,4.898,.95,9.805,1.541,14.693,8.784,72.717,41.694,132.216,98.677,178.095,38.916,31.333,83.621,49.447,133.214,55.454,4.907,.594,9.855,.85,14.781,1.293,.973,.087,1.933,.313,2.899,.475h26.461c5.089-.509,10.183-.967,15.266-1.535,56.588-6.319,106.245-28.385,148.438-66.541,45.718-41.344,73.796-92.683,83.966-153.504C548.604,168.242,456.582,33.992,318.488,5.553Zm-95.02,348.639c-9.326,4.197-19.167,6.329-29.311,6.407-26.541,.202-53.085,.084-79.628,.089-.438,0-.876-.06-1.532-.107V168.666c.995-.046,1.873-.122,2.751-.122,24.204-.006,48.408-.105,72.611,.032,15.606,.088,30.238,3.577,43.203,12.885,25.47,18.287,26.894,60.5-1.388,78.611-.521,.334-1.013,.714-1.878,1.327,9.482,5.293,16.359,12.604,21.191,21.814,11.496,21.914,7.138,56.057-26.018,70.979Zm76.102-182.881h88.955v20.744h-88.955v-20.744Zm115.704,121.466c-.087,.795-.304,1.577-.524,2.682h-110.067c.725,8.488,3.388,15.933,8.622,22.408,13.593,16.814,36.877,17.028,50.095,10.359,6.227-3.141,10.84-7.971,14.072-14.089,.83-1.572,1.76-2.134,3.544-2.116,9.536,.094,19.074,.041,28.612,.05,.78,0,1.56,.082,2.649,.143-.574,1.663-.98,3.12-1.568,4.5-10.103,23.703-27.819,37.662-53.381,41.348-15.56,2.244-30.764,.758-45.048-6.11-22.302-10.724-34.81-28.958-38.87-53.015-2.882-17.077-1.69-33.978,5.398-49.988,10.329-23.334,28.705-36.244,53.695-39.945,14.69-2.176,29.149-.991,42.856,5.002,22.394,9.791,35.067,27.302,39.42,51.083,1.681,9.184,1.513,18.439,.495,27.689Z" fill="#fff"/><path d="M202.322,282.355c-4.993-2.351-10.313-3.041-15.741-3.066-10.428-.046-20.856-.017-31.284-.008-.877,0-1.754,.08-2.784,.131v47.033c.68,.061,1.2,.147,1.72,.148,11.597,.006,23.194,.068,34.79-.044,2.855-.028,5.747-.422,8.548-1.003,10.385-2.154,16.635-8.761,17.836-18.619,1.349-11.066-3.434-20.028-13.085-24.572Z" fill="#fff"/><path d="M167.666,245.17c8.086-.127,16.213,.106,24.243-.658,7.648-.728,14.282-3.99,17.414-11.737,5.281-13.065-1.332-25.799-14.977-29.032-1.568-.371-3.187-.711-4.787-.731-12.048-.157-24.098-.234-36.147-.315-.316-.002-.634,.233-.923,.347v42.141c5.156,0,10.168,.064,15.178-.015Z" fill="#fff"/><path d="M349.71,235.155c-14.56-1.663-27.072,2.372-36.479,14.092-4.715,5.874-7.231,12.695-8.188,20.344h78.008c.366-6.343-2.031-14.026-6.238-19.547-6.818-8.949-16.096-13.631-27.102-14.888Z" fill="#fff"/></svg>