<?xml version="1.0" encoding="UTF-8"?><svg id="Layer_1" xmlns="http://www.w3.org/2000/svg" viewBox="0 0 529.197 529.197"><path d="M392.274,183.673c-3.891-24.628-20.652-42.808-45.39-46.685-14.16-2.219-28.667-2.867-43.03-3.009-30.688-.303-61.387-.066-92.072,.482-10.613,.19-21.391,1.036-31.756,3.198-20.793,4.337-34.789,16.968-41.217,37.501-3.191,10.194-4.022,20.752-4.141,31.312-.328,29.139-.561,58.283-.398,87.422,.096,17.079,.01,34.19,2.703,51.172,3.911,24.658,20.648,42.82,45.392,46.688,14.161,2.214,28.667,2.866,43.03,3.006,30.791,.301,61.595,.056,92.384-.484,10.406-.182,20.96-1.066,31.139-3.14,21.101-4.299,35.19-17.084,41.623-37.857,3.125-10.092,3.912-20.559,4.037-31.016,.237-19.907,.069-39.82,.069-59.73,.163,0,.327,0,.49,0,0-8.09,.188-16.184-.038-24.268-.509-18.217,.038-36.477-2.825-54.593Zm-127.911,162.51c-46.763-.298-81.634-38.072-81.585-82.085,.539-47.053,38.474-81.86,82.117-81.544,46.985,.34,81.828,38.349,81.54,82.083-.307,46.686-38.012,81.827-82.072,81.547Zm85.164-147.807c-10.531-.016-19.161-8.723-19.096-19.266,.066-10.629,8.845-19.388,19.194-19.148,10.692,.248,19.07,8.811,18.981,19.401-.088,10.377-8.77,19.029-19.079,19.013Z" fill="#fff"/><path d="M264.73,211.427c-29.255-.139-52.843,23.325-53.037,52.758-.193,29.26,23.221,52.877,52.668,53.124,29.245,.245,52.898-23.144,53.194-52.598,.294-29.361-23.284-53.144-52.824-53.285Z" fill="#fff"/><path d="M264.599,0C118.465,0,0,118.465,0,264.599s118.465,264.599,264.599,264.599,264.599-118.465,264.599-264.599S410.732,0,264.599,0Zm159.147,309.539c-.099,13.534-.798,27.235-3.064,40.546-5.373,31.567-22.867,53.997-53.17,65.699-14.527,5.61-29.804,6.956-45.147,7.235-18.452,.336-36.915,.08-55.373,.08-.001,.316-.003,.633-.004,.949-21.568-.314-43.141-.444-64.702-1.005-15.38-.4-30.546-2.437-44.799-8.772-22.453-9.98-37.448-26.761-45.332-49.978-4.756-14.006-5.993-28.567-6.181-43.179-.425-32.878-.792-65.763-.519-98.64,.12-14.467,.751-29.101,3.083-43.342,5.436-33.194,24.164-56.036,56.268-67.255,13.46-4.704,27.529-5.957,41.614-6.136,34.739-.443,69.485-.744,104.223-.505,13.115,.09,26.385,.83,39.294,3.003,33.032,5.56,55.848,24.115,67.095,56.074,4.769,13.552,6.02,27.729,6.205,41.921,.447,34.433,.761,68.874,.508,103.307Z" fill="#fff"/></svg>