<?xml version="1.0" encoding="UTF-8"?><svg id="Layer_1" xmlns="http://www.w3.org/2000/svg" viewBox="0 0 529.197 529.197"><g id="Layer_2"><path d="M264.599,0C118.465,0,0,118.465,0,264.599s118.465,264.599,264.599,264.599,264.599-118.465,264.599-264.599S410.732,0,264.599,0Zm-66.563,356.193c.011,4.674-1.217,6.638-6.243,6.52-13.132-.307-26.28-.366-39.411-.07-4.994,.113-6.285-1.587-6.247-6.37,.199-25.242,.093-50.486,.093-75.73,0-24.833,.122-49.667-.106-74.498-.044-4.85,1.271-6.356,6.212-6.232,13.336,.333,26.688,.225,40.03,.024,4.148-.063,5.703,1.03,5.69,5.511-.15,50.281-.141,100.564-.018,150.845Zm-18.588-178.57c-9.084,2.251-18.918,.219-26.151-5.786-3.367-2.795-6.07-6.358-7.863-10.349-4.312-9.598-3.704-20.852,2.536-29.508,3.036-4.212,7.11-7.718,11.831-9.909,5.808-2.695,13.186-3.446,19.643-1.793,1.968,.504,3.85,1.231,5.576,2.195,3.822,2.134,7.367,4.822,10.128,8.243,2.706,3.352,4.539,7.305,5.54,11.486,3.736,15.616-5.614,31.547-21.24,35.419Zm207.094,183.604c-.705,.404-1.373,1.04-2.123,1.161-1.406,.226-2.86,.198-4.294,.199-14.743,.011-29.486,.007-44.827,.007-.129-2.77-.318-4.956-.32-7.142-.021-25.455,.191-50.913-.141-76.364-.097-7.455-1.269-14.982-2.762-22.309-1.847-9.06-10.357-15.423-19.625-15.405-4.069,.008-8.237-.086-12.187,.717-13.123,2.668-18.613,12.69-19.514,24.374-1.445,18.739-1.26,37.611-1.551,56.43-.2,12.903-.038,25.811-.038,39.246h-50.073V199.971c8.422,0,16.757,0,25.091,0,6.366,0,12.737,.15,19.096-.06,3.474-.115,4.844,1.142,4.725,4.599-.158,4.612-.039,9.233-.039,15.723,8.474-11.773,18.266-18.82,30.391-21.985,17.373-4.535,34.63-3.59,50.565,4.961,15.939,8.552,22.423,23.715,24.95,40.761,1.281,8.646,1.81,17.403,2.678,26.109v91.147Z" fill="#fff"/></g></svg>