<?xml version="1.0" encoding="UTF-8"?><svg id="Layer_3" xmlns="http://www.w3.org/2000/svg" viewBox="0 0 529.197 529.197"><path d="M230.184,129.843c6.592,5.277,6.748,6.19,3.4,14.199-21.757,47.165-7.311,104.939,34.015,136.712,32.748,26.239,78.875,32.231,117.117,14.867,8.331-3.277,8.731-3.189,14.487,3.2v2c-29.546,98.404-155.457,132.561-228.554,58.671-75.961-69.958-39.437-205.387,59.535-229.65Zm37.61,256.43c42.735-1.607,96.68-27.565,108.585-70.865-.478-.889-3.288-1.176-4.788-.766-19.406,5.301-39.056,5.822-58.603,1.813-75.496-13.74-115.167-91.709-99.827-163.166-24.995,6.175-42.709,29.169-55.575,50.497-44.214,81.252,17.885,182.79,110.207,182.487Z" fill="#fff"/></svg>