<?xml version="1.0" encoding="UTF-8"?><svg id="Layer_4" xmlns="http://www.w3.org/2000/svg" viewBox="0 0 529.197 529.197"><path d="M93.661,261.381c3.227-4.206,7.46-5.705,12.744-5.484,7.041,.294,14.105-.006,21.157,.079,1.95,.023,4.433-.147,5.728,.919,2.596,2.137,6.472,5.24,6.256,7.621-.26,2.875-3.826,6.019-6.712,7.891-1.981,1.285-5.237,.731-7.927,.77-5.786,.084-11.588-.227-17.359,.087-5.56,.302-10.214-1.104-13.889-5.369v-6.513Z" fill="#fff"/><path d="M345.328,264.415c.423,42.67-34.248,82.173-82.388,81.406-43.904-.699-79.559-33.195-79.791-80.95-.227-46.476,34.716-81.649,82.017-81.417,46.475,.228,80.415,39.037,80.163,80.961Zm-16.025,.24c-.211-34.33-26.655-65.533-65.483-65.019-35.578,.471-64.437,25.416-64.487,64.977-.05,39.469,28.849,64.533,64.457,65.008,38.269,.51,65.19-29.958,65.513-64.966Z" fill="#fff"/><path d="M411.83,255.972c4.51,.007,9.028-.17,13.527,.051,5.755,.283,10.106,4.07,10.179,8.476,.074,4.48-4.065,8.386-10.004,8.573-9.01,.284-18.041,.276-27.052,.006-6.105-.183-11.675-4.739-11.461-8.679,.227-4.176,5.72-8.186,11.825-8.405,4.324-.155,8.657-.03,12.987-.023Z" fill="#fff"/><path d="M256.585,117.028c.002-5.059,.027-10.118-.006-15.176-.03-4.631,2.298-7.725,6.665-8.531,4.467-.825,6.947,2.18,8.316,6.063,.526,1.492,.944,3.112,.96,4.678,.091,8.852,.083,17.705,.006,26.557-.012,1.39-.39,2.833-.872,4.151-1.489,4.072-4.317,7.211-8.782,6.286-4.17-.864-6.493-4.153-6.33-8.854,.175-5.053,.04-10.116,.041-15.175Z" fill="#fff"/><path d="M256.585,411.649c0-5.056,.055-10.112-.017-15.166-.064-4.478,2.46-7.886,6.315-8.099,2.69-.149,5.873,2.572,8.216,4.695,1.192,1.08,1.369,3.665,1.399,5.579,.139,8.845,.111,17.694,.023,26.54-.016,1.565-.454,3.174-.954,4.677-1.328,3.993-4.131,6.741-8.375,6.026-4.313-.727-6.684-3.88-6.622-8.543,.069-5.235,.016-10.472,.016-15.708Z" fill="#fff"/><path d="M357.77,179.801c-6.842,.187-10.481-5.593-7.728-10.732,.838-1.565,1.923-3.07,3.168-4.332,6.83-6.919,13.71-13.79,20.649-20.601,3.072-3.015,6.52-4.725,10.483-1.444,4.026,3.333,4.932,7.281,1.294,11.258-7.507,8.206-15.571,15.91-23.559,23.662-1.32,1.28-3.42,1.756-4.307,2.188Z" fill="#fff"/><path d="M355.98,348.321c3.292,1.953,6.228,3.066,8.331,5.058,6.787,6.429,13.371,13.082,19.818,19.853,2.901,3.046,5.295,6.517,2.26,11.027-3.043,4.522-7.449,5.595-11.421,1.825-8.09-7.678-16.003-15.572-23.513-23.811-1.66-1.822-2.343-5.739-1.639-8.156,.642-2.205,3.775-3.684,6.164-5.795Z" fill="#fff"/><path d="M179.496,356.662c-1.834,3.406-2.788,6.476-4.76,8.598-6.253,6.729-12.72,13.281-19.427,19.557-5.025,4.702-8.749,4.868-12.333,1.445-3.511-3.353-3.626-7.165-.442-10.514,7.553-7.945,15.213-15.813,23.255-23.252,1.848-1.709,5.693-2.613,8.1-1.963,2.164,.583,3.615,3.808,5.606,6.129Z" fill="#fff"/><path d="M178.408,170.791c.187,6.858-5.532,10.625-10.232,7.528-3.856-2.541-7.225-5.897-10.541-9.164-4.989-4.915-9.774-10.039-14.585-15.131-3.126-3.308-3.89-6.848-.545-10.521,3.255-3.574,7.092-3.883,10.475-.698,7.849,7.388,15.485,15.012,22.972,22.767,1.506,1.56,1.968,4.129,2.457,5.218Z" fill="#fff"/></svg>